<svg width="11" height="20" viewBox="0 0 11 20" fill="none" xmlns="http://www.w3.org/2000/svg">
<path fill-rule="evenodd" clip-rule="evenodd" d="M3.20415 7.91704L4.40806 7.74781V5.54204L3.20415 5.78573V7.91704ZM3.20415 5.17554L4.40806 4.93185V2.86726L3.20415 3.10999V5.17651V5.17554ZM3.20415 10.673L4.40806 10.5464V8.35317L3.20415 8.52239V10.674V10.673ZM3.20415 13.342H4.40806V11.1488L3.20415 11.2755V13.342ZM1.6294 10.8394L2.64788 10.732V8.59976L1.6294 8.74191V10.8394ZM1.6294 8.13752L2.64788 7.9944V5.8979L1.6294 6.10485V8.13752ZM1.6294 5.49466L2.64788 5.28771V3.22023L1.6294 3.42523V5.49369V5.49466ZM5.5 0.5L11 2.06657V19.5H9.2219V18.5804H10.0227L9.9636 2.74542L6.03746 1.70587V19.5H4.96344V1.70587L1.0373 2.74542L0.978176 18.5804H1.77899V19.5H0V2.06657L5.5 0.5ZM7.79674 7.91704L6.59283 7.74781V5.54204L7.79674 5.78573V7.91704ZM7.79674 5.17554L6.59283 4.93185V2.86726L7.79674 3.10999V5.17651V5.17554ZM7.79674 10.673L6.59283 10.5464V8.35317L7.79674 8.52239V10.674V10.673ZM7.79674 13.342H6.59283V11.1488L7.79674 11.2755V13.342ZM9.3715 10.8394L8.35301 10.732V8.59976L9.3715 8.74191V10.8394ZM9.3715 8.13752L8.35301 7.9944V5.8979L9.3715 6.10485V8.13752ZM9.3715 5.49466L8.35301 5.28771V3.22023L9.3715 3.42523V5.49369V5.49466ZM9.3715 13.342H8.35301V11.3345L9.3715 11.4418V13.342ZM1.6294 13.342H2.64788V11.3345L1.6294 11.4418V13.342Z" fill="white"/>
</svg>
