<svg width="18" height="17" viewBox="0 0 18 17" fill="none" xmlns="http://www.w3.org/2000/svg">
<path d="M8.27442 13.1264C8.45992 13.3337 8.72542 13.4501 9.00184 13.4501C9.27826 13.4501 9.54377 13.3337 9.72926 13.1264L14.0865 8.29997C14.3447 8.01264 14.4102 7.60165 14.2538 7.24522C14.0974 6.89242 13.7446 6.66328 13.3591 6.66328H11.3005V1.38585C11.3005 0.843923 10.864 0.407471 10.3221 0.407471H7.67794C7.13601 0.407471 6.69956 0.843923 6.69956 1.38585V6.66328H4.64096C4.25543 6.66328 3.90263 6.89242 3.74624 7.24522C3.58984 7.59801 3.65531 8.01264 3.91354 8.29997L8.27079 13.1264H8.27442Z" fill="white"/>
<path d="M17.0398 14.6721H0.960194C0.432815 14.6721 0 15.1013 0 15.6323C0 16.1634 0.429178 16.5925 0.960194 16.5925H17.0434C17.5708 16.5925 18 16.1634 18 15.6323C18 15.1013 17.5708 14.6721 17.0434 14.6721H17.0398Z" fill="white"/>
</svg>
