<svg width="65" height="60" viewBox="0 0 65 60" fill="none" xmlns="http://www.w3.org/2000/svg">
<path fill-rule="evenodd" clip-rule="evenodd" d="M20.7458 11.6476L30.8334 17.5519V59.9201H28.0456V19.7435L21.0165 15.5215V59.9201H0V19.3761L20.7458 11.6476ZM13.5587 42.1555H17.2199V36.3317L13.5587 36.5863V42.1555ZM13.5587 34.1401L17.2199 33.8855V26.8757L13.5587 27.5526V34.1401ZM13.5587 25.0709L17.2199 24.3941V18.1578L13.5587 19.2601V25.0709ZM7.86386 42.1555H11.119V36.7539L7.86386 36.9795V42.1555ZM7.86386 34.5366L11.119 34.311V28.007L7.86386 28.6097V34.5366ZM7.86386 26.1248L11.119 25.5221V19.9949L7.86386 20.9779V26.1216V26.1248ZM2.84904 42.1555H5.42735V37.1503L2.84904 37.3308V42.1555ZM2.84904 34.8846L5.42735 34.7042V29.0576L2.84904 29.5346V34.8814V34.8846ZM2.84904 27.0562L5.42735 26.5792V21.7191L2.84904 22.4958V27.0562Z" fill="white"/>
<path fill-rule="evenodd" clip-rule="evenodd" d="M36.4703 38.6683L39.0486 38.8036V33.7985L36.4703 33.8404V38.665V38.6683ZM41.4884 38.9358L44.7435 39.1098V33.7082L41.4884 33.763V38.939V38.9358ZM47.1832 39.2355L50.8444 39.4289V33.6051L47.1832 33.6631V39.2323V39.2355ZM36.4703 15.4054L39.0486 14.9284V10.0683L36.4703 10.845V15.4054ZM36.4703 23.2371L39.0486 23.0566V17.4101L36.4703 17.8871V23.2338V23.2371ZM36.4703 30.5079H39.0486V25.5027L36.4703 25.6832V30.5079ZM41.4884 14.4772L44.7435 13.8745V8.34729L41.4884 9.33027V14.4772ZM41.4884 22.889L44.7435 22.6634V16.3594L41.4884 16.9621V22.889ZM41.4884 30.5079H44.7435V25.1063L41.4884 25.3319V30.5079ZM47.1832 13.4233L50.8444 12.7465V6.51024L47.1832 7.61569V13.4266V13.4233ZM47.1832 22.4926L50.8444 22.238V15.2282L47.1832 15.905V22.4926ZM47.1832 30.5079H50.8444V24.6841L47.1832 24.9387V30.5079ZM54.3703 0L64.4579 5.90434V59.92H61.6701V8.09591L54.641 3.87392V59.92H33.6245V7.72849L54.3703 0Z" fill="white"/>
</svg>
