<svg width="37" height="59" viewBox="0 0 37 59" fill="none" xmlns="http://www.w3.org/2000/svg">
<path fill-rule="evenodd" clip-rule="evenodd" d="M10.7776 23.0319L14.8271 22.5064V15.6569L10.7776 16.4136V23.0319ZM10.7776 14.5188L14.8271 13.7621V7.35098L10.7776 8.10469V14.5218V14.5188ZM10.7776 31.59L14.8271 31.1966V24.3861L10.7776 24.9116V31.593V31.59ZM10.7776 39.8778H14.8271V33.0674L10.7776 33.4608V39.8778ZM5.4807 32.1065L8.90651 31.7732V25.1519L5.4807 25.5933V32.1065ZM5.4807 23.7165L8.90651 23.2721V16.7619L5.4807 17.4045V23.7165ZM5.4807 15.5097L8.90651 14.8671V8.44702L5.4807 9.08362V15.5067V15.5097ZM18.5 0L37 4.86462V59H31.0191V56.1443H33.7128L33.5139 6.97262L20.3078 3.74455V59H16.6952V3.74455L3.48909 6.97262L3.29023 56.1443H5.98388V59H0V4.86462L18.5 0ZM26.2254 23.0319L22.1759 22.5064V15.6569L26.2254 16.4136V23.0319ZM26.2254 14.5188L22.1759 13.7621V7.35098L26.2254 8.10469V14.5218V14.5188ZM26.2254 31.59L22.1759 31.1966V24.3861L26.2254 24.9116V31.593V31.59ZM26.2254 39.8778H22.1759V33.0674L26.2254 33.4608V39.8778ZM31.5223 32.1065L28.0965 31.7732V25.1519L31.5223 25.5933V32.1065ZM31.5223 23.7165L28.0965 23.2721V16.7619L31.5223 17.4045V23.7165ZM31.5223 15.5097L28.0965 14.8671V8.44702L31.5223 9.08362V15.5067V15.5097ZM31.5223 39.8778H28.0965V33.6439L31.5223 33.9772V39.8778ZM5.4807 39.8778H8.90651V33.6439L5.4807 33.9772V39.8778Z" fill="white"/>
</svg>
