<svg width="56" height="56" viewBox="0 0 56 56" fill="none" xmlns="http://www.w3.org/2000/svg">
<path d="M6.77698 51.8205L6.77698 10.1274H3.85282L3.85282 51.8205H6.77698Z" fill="white"/>
<path d="M6.98912 52.0326H3.64087V9.91541H6.98912V52.0326ZM4.06497 51.6085H6.56502V10.3395H4.06497V51.6085Z" fill="white"/>
<path d="M5.31394 51.9287L46.9476 51.9287V49.4393L5.31394 49.4393V51.9287Z" fill="white"/>
<path d="M47.1618 52.1406H5.104V49.225H47.1618V52.1406ZM5.5281 51.7166H46.7377V49.6491H5.5281V51.7166Z" fill="white"/>
<path d="M55.417 0.212036H7.88196V2.59335H55.417V0.212036Z" fill="white"/>
<path d="M55.6289 2.80541H7.6698V0H55.6289V2.80541ZM8.0939 2.38131H55.2048V0.424098H8.0939V2.38131Z" fill="white"/>
<path d="M5.31599 2.18188L10.2546 10.3458H0.375244L5.31599 2.18188Z" fill="white"/>
<path d="M10.63 10.5579H0L5.31607 1.77271L10.6321 10.5579H10.63ZM0.752774 10.1338H9.87936L5.31607 2.59121L0.752774 10.1338Z" fill="white"/>
<path d="M54.611 50.6839L46.4471 55.6225V45.7432L54.611 50.6839Z" fill="white"/>
<path d="M46.2351 55.9979V45.3679L55.0203 50.684L46.2351 56.0001V55.9979ZM46.6592 46.1207V55.2473L54.2018 50.684L46.6592 46.1207Z" fill="white"/>
<path d="M55.4762 47.904V0.369019L53.0949 0.369019V47.904H55.4762Z" fill="white"/>
<path d="M55.6861 48.116H52.8807V0.15686H55.6861V48.116ZM53.3048 47.6919H55.262V0.580958H53.3048V47.6919Z" fill="white"/>
<path d="M19.5678 24.9731C19.5678 23.4187 19.5084 22.1443 19.4469 20.9314H21.7391L21.8897 23.3254H21.9491C22.7633 21.8962 24.1205 20.59 26.5654 20.59C28.5565 20.59 30.0642 21.8326 30.6982 23.5735H30.7576C31.2093 22.7338 31.7839 22.0807 32.3861 21.6142C33.2916 20.9293 34.2267 20.5879 35.6135 20.5879C37.5453 20.5879 40.4101 21.8623 40.4101 27.0851V35.9445H37.8464V27.4583C37.8464 24.5362 36.7904 22.7953 34.6487 22.7953C33.141 22.7953 31.9642 23.9446 31.5104 25.2508C31.3895 25.6559 31.2686 26.1521 31.2686 26.6504V35.9445H28.705V26.9303C28.705 24.5362 27.649 22.7953 25.6578 22.7953C23.9975 22.7953 22.7909 24.163 22.3392 25.5308C22.2184 25.9358 22.159 26.432 22.159 26.8667V35.9445H19.5635V24.9709L19.5678 24.9731Z" fill="white"/>
<path d="M40.7346 36.2647H37.5348V27.4604C37.5348 25.4777 37.0343 23.1155 34.6551 23.1155C33.2323 23.1155 32.2038 24.2415 31.8179 25.3569C31.7246 25.6707 31.5931 26.1626 31.5931 26.6525V36.2647H28.3933V26.9324C28.3933 25.0876 27.6766 23.1155 25.6643 23.1155C24.1566 23.1155 23.0624 24.3793 22.6468 25.6325C22.545 25.9739 22.4814 26.4404 22.4814 26.8688V36.2647H19.2498V24.9731C19.2498 23.4823 19.1946 22.2673 19.1289 20.9484L19.1119 20.6154H22.0382L22.1527 22.4369C23.2278 21.0014 24.7079 20.274 26.5676 20.274C28.4272 20.274 29.9625 21.2792 30.7725 22.9331C31.1712 22.3182 31.6568 21.7817 32.1954 21.3661C33.209 20.6006 34.2332 20.274 35.6178 20.274C38.0903 20.274 40.7325 22.0637 40.7325 27.0893V36.2668L40.7346 36.2647ZM38.1709 35.6285H40.0984V27.0872C40.0984 21.3534 36.6696 20.9081 35.6199 20.9081C34.3667 20.9081 33.4867 21.1859 32.5834 21.8708C31.9791 22.3394 31.4447 22.9819 31.0418 23.7262L30.9528 23.8937H30.4799L30.4035 23.6838C29.7801 21.9726 28.3106 20.9081 26.5697 20.9081C24.6358 20.9081 23.2172 21.7499 22.2291 23.4823L22.1379 23.6435H21.595L21.4445 21.2495H19.7841C19.8435 22.4518 19.888 23.5926 19.888 24.9731V35.6285H21.8474V26.8688C21.8474 26.3747 21.9173 25.8531 22.0425 25.4417C22.5323 23.9616 23.8406 22.4794 25.6664 22.4794C27.7423 22.4794 29.0316 24.1864 29.0316 26.9324V35.6285H30.9591V26.6525C30.9591 26.0821 31.1054 25.5286 31.2136 25.1618C31.678 23.8195 32.9206 22.4794 34.6551 22.4794C36.9219 22.4794 38.1709 24.2478 38.1709 27.4604V35.6285Z" fill="white"/>
<path d="M39.9054 19.3729L40.548 18.8661C41.7927 17.897 42.8869 16.7414 42.8869 15.6493C42.8869 14.8562 42.5158 14.2731 41.6824 14.2731C41.0696 14.2731 40.6179 14.5488 40.2066 14.9008L39.9054 14.1416C40.3783 13.7557 40.9805 13.4143 41.7842 13.4143C43.241 13.4143 43.7414 14.5042 43.7414 15.5518C43.7414 16.9937 42.3864 18.2936 41.3007 19.1651C41.7333 19.1439 42.1235 19.1311 42.7766 19.1311H44.051V19.9581H39.9033V19.375L39.9054 19.3729Z" fill="white"/>
</svg>
