<svg width="56" height="56" viewBox="0 0 56 56" fill="none" xmlns="http://www.w3.org/2000/svg">
<path d="M27.9996 0C12.5359 0 0 12.5359 0 27.9996C0 43.4633 12.5359 55.9992 27.9996 55.9992C43.4633 55.9992 55.9992 43.4633 55.9992 27.9996C55.9992 12.5359 43.4633 0 27.9996 0ZM27.9996 52.1973C14.6354 52.1973 3.80133 41.3633 3.80133 27.999C3.80133 14.6348 14.6354 3.80133 27.9996 3.80133C41.3638 3.80133 52.1979 14.6354 52.1979 27.9996C52.1979 41.3638 41.3638 52.1979 27.9996 52.1979V52.1973Z" fill="white"/>
<path d="M30.217 27.9996C30.217 29.2249 29.2231 30.2182 27.9973 30.217C26.7714 30.2159 25.7804 29.1871 25.7821 27.9658C25.7878 23.1586 27.008 13.6025 27.6352 10.5281C27.716 10.1329 28.2808 10.1329 28.3616 10.5281C28.99 13.6226 30.217 23.2388 30.217 27.999V27.9996Z" fill="white"/>
<path d="M25.5307 29.7639C21.9482 29.5468 18.073 28.7729 15.9586 28.341C15.6413 28.2762 15.6418 27.8226 15.9586 27.7584C17.9481 27.354 21.5684 26.6419 24.9733 26.375C24.9481 26.9203 24.9338 27.4519 24.9332 27.9652C24.9327 28.6371 25.0713 29.2684 25.5307 29.7639Z" fill="white"/>
<path d="M27.9996 7.09522C28.5596 7.09522 29.0136 6.64127 29.0136 6.0813C29.0136 5.52133 28.5596 5.06738 27.9996 5.06738C27.4397 5.06738 26.9857 5.52133 26.9857 6.0813C26.9857 6.64127 27.4397 7.09522 27.9996 7.09522Z" fill="white"/>
<path d="M6.08118 29.0136C6.64115 29.0136 7.0951 28.5596 7.0951 27.9996C7.0951 27.4397 6.64115 26.9857 6.08118 26.9857C5.52121 26.9857 5.06726 27.4397 5.06726 27.9996C5.06726 28.5596 5.52121 29.0136 6.08118 29.0136Z" fill="white"/>
<path d="M27.9996 50.9313C28.5596 50.9313 29.0136 50.4773 29.0136 49.9174C29.0136 49.3574 28.5596 48.9034 27.9996 48.9034C27.4397 48.9034 26.9857 49.3574 26.9857 49.9174C26.9857 50.4773 27.4397 50.9313 27.9996 50.9313Z" fill="white"/>
<path d="M49.9174 29.0136C50.4773 29.0136 50.9313 28.5596 50.9313 27.9996C50.9313 27.4397 50.4773 26.9857 49.9174 26.9857C49.3574 26.9857 48.9034 27.4397 48.9034 27.9996C48.9034 28.5596 49.3574 29.0136 49.9174 29.0136Z" fill="white"/>
</svg>
