<svg width="83" height="85" viewBox="0 0 83 85" fill="none" xmlns="http://www.w3.org/2000/svg">
<path d="M53.2354 29.1314L51.5109 30.8559L56.3629 35.7079L41.3587 50.7218L40.3844 49.7475C37.7246 46.0647 38.0461 40.8912 41.3587 37.5786L51.5109 27.4264L52.0175 26.9198L60.1431 18.7942L41.3587 0L39.0886 2.27011L26.7735 14.5852L22.5646 18.7942L29.141 25.3707L30.8558 23.6559L26.3351 19.1352L41.3392 4.12127L42.3135 5.09557C44.9831 8.77841 44.6518 13.9519 41.3392 17.2645L29.7841 28.8197L22.5548 36.0489L41.3392 54.8334L43.6093 52.5633L55.9147 40.2482L60.1237 36.0392L53.2159 29.1314H53.2354ZM41.3587 34.1296L34.6458 27.4167L41.3587 20.7038L48.0716 27.4167L41.3587 34.1296ZM43.6678 18.9403C46.2302 16.3779 47.2727 12.8704 46.7953 9.53836L56.3726 19.1157L49.7961 25.6922L43.3463 19.2423C43.4535 19.1449 43.5606 19.0475 43.6581 18.9403M26.3546 35.7079L32.9213 29.1412L39.3712 35.5813C39.264 35.6787 39.1666 35.7761 39.0594 35.8833C36.497 38.4457 35.4545 41.9532 35.9319 45.2853L26.3546 35.7079Z" fill="#DBCEA0"/>
<path d="M0.0194859 75.7028L5.14428 68.2884L5.18325 68.2105C5.18325 68.2105 5.14428 68.191 5.08582 68.191C4.18947 68.191 3.45875 68.191 2.89366 68.2007C2.31882 68.2007 1.87065 68.2299 1.53939 68.2787C1.20813 68.3176 0.95481 68.3858 0.78918 68.4833C0.623549 68.5807 0.496891 68.7074 0.409204 68.873C0.321518 69.0386 0.233831 69.253 0.146144 69.5258L0.0584578 69.5452L0 69.4965L0.506634 67.5869H0.59432L0.652778 67.6161C0.623549 67.772 0.652778 67.8695 0.750208 67.9084C0.847637 67.9474 1.05224 67.9669 1.37376 67.9669H5.98218L6.06986 68.0253V68.1325L1.00352 75.5177L0.964553 75.5956C0.964553 75.5956 1.00352 75.6151 1.06198 75.6151H4.44279C4.84225 75.6151 5.16377 75.5664 5.40734 75.4787C5.65092 75.391 5.84578 75.2449 5.99192 75.0403C6.12832 74.8357 6.22575 74.5629 6.28421 74.2121L6.36215 74.1829L6.42061 74.2121L6.24524 75.7515L6.21601 75.8295L6.12832 75.8782C5.50477 75.8782 4.84225 75.8587 4.1505 75.8587C3.45875 75.8587 2.75726 75.8587 2.06551 75.8587H0.0974296L0.0194859 75.8002V75.6931V75.7028Z" fill="#DBCEA0"/>
<path d="M21.902 75.712L21.9508 75.79L21.902 75.8679C21.6682 75.8679 21.4246 75.8679 21.1713 75.8387C20.918 75.8192 20.6842 75.8095 20.4601 75.8095C20.197 75.8095 19.9729 75.8095 19.7878 75.8387C19.6027 75.8582 19.3884 75.8679 19.1643 75.8679L19.1156 75.79L19.1643 75.712C19.6319 75.712 19.934 75.6536 20.0509 75.5269C20.1678 75.4003 20.1581 75.1567 19.9924 74.8059L17.1377 68.6679L17.3813 68.4535L14.9456 74.309C14.7312 74.8254 14.7215 75.1859 14.8969 75.3905C15.0722 75.6049 15.4522 75.7023 16.0173 75.7023L16.0758 75.7802L16.0173 75.8582C15.764 75.8582 15.5301 75.8582 15.3255 75.829C15.1112 75.8095 14.8481 75.7997 14.5266 75.7997C14.2343 75.7997 13.9908 75.7997 13.8154 75.829C13.6303 75.8484 13.4159 75.8582 13.1626 75.8582L13.1139 75.7802L13.1626 75.7023C13.3867 75.7023 13.5913 75.6633 13.7569 75.5756C13.9226 75.488 14.0784 75.3418 14.2343 75.1177C14.3805 74.9034 14.5364 74.5916 14.7117 74.1824L17.3521 67.83L17.43 67.791L17.4982 67.83L20.4309 74.1142C20.6257 74.5331 20.8011 74.8644 20.9472 75.0885C21.1031 75.3223 21.2493 75.4782 21.4052 75.5659C21.561 75.6536 21.7267 75.6926 21.9118 75.6926M15.8127 71.581L15.9978 71.3375H18.5992L18.6869 71.581H15.8127Z" fill="#DBCEA0"/>
<path d="M29.7551 74.553V68.2688L30.0376 68.2981V74.5628C30.0376 74.9915 30.1058 75.2935 30.2519 75.4689C30.3981 75.6442 30.6417 75.7319 30.9924 75.7319L31.0314 75.8099L30.9924 75.8878C30.8365 75.8878 30.6709 75.8878 30.4955 75.8781C30.3201 75.8781 30.135 75.8683 29.9207 75.8683C29.7063 75.8683 29.5212 75.8683 29.3361 75.8781C29.151 75.8781 28.9756 75.8878 28.81 75.8878L28.7808 75.8099L28.81 75.7319C29.1802 75.7319 29.4335 75.6442 29.5602 75.4689C29.6869 75.2935 29.7551 74.9915 29.7551 74.5628M36.1075 76.0047L36.049 76.034H35.9613L30.2519 69.0093C29.9694 68.6683 29.7161 68.4345 29.492 68.3078C29.2679 68.1909 29.0536 68.1227 28.8587 68.1227L28.8197 68.0447L28.8587 67.9668C29.0048 67.9668 29.151 67.9668 29.2971 67.9765C29.453 67.9765 29.5797 67.9863 29.6966 67.9863C29.8135 67.9863 29.9304 67.9863 30.0279 67.9765C30.135 67.9765 30.213 67.9668 30.2617 67.9668C30.3689 67.9668 30.4468 68.0155 30.4858 68.1129C30.5248 68.2104 30.6417 68.376 30.8365 68.6196L36.0003 75.0304L36.0977 75.9852L36.1075 76.0047ZM36.1075 69.3016V76.0047L35.8347 75.615V69.3016C35.8347 68.8729 35.7665 68.5709 35.6301 68.3955C35.4937 68.2201 35.2501 68.1324 34.8993 68.1324L34.8701 68.0545L34.8993 67.9765C35.065 67.9765 35.2403 67.9765 35.4157 67.996C35.5911 68.0058 35.7762 68.0155 35.9906 68.0155C36.1854 68.0155 36.3803 68.0155 36.5751 67.996C36.77 67.9863 36.9454 67.9765 37.1012 67.9765L37.1402 68.0545L37.1012 68.1324C36.7408 68.1324 36.4874 68.2201 36.3413 68.3955C36.1952 68.5709 36.1172 68.8729 36.1172 69.3016" fill="#DBCEA0"/>
<path d="M48.8319 76.0152C47.8868 76.0152 47.0879 75.8398 46.4156 75.4793C45.7434 75.1188 45.2367 74.6414 44.886 74.0374C44.5352 73.4333 44.3599 72.761 44.3599 72.0206C44.3599 71.397 44.4768 70.8319 44.7204 70.3253C44.9639 69.8187 45.2952 69.3802 45.7336 69.01C46.1623 68.6398 46.6787 68.3572 47.2633 68.1526C47.8478 67.948 48.4811 67.8506 49.1729 67.8506C49.5723 67.8506 49.9621 67.8896 50.3323 67.9675C50.7025 68.0454 51.0143 68.1721 51.2579 68.328C51.3358 68.3864 51.3748 68.4352 51.3748 68.4644C51.3748 68.5034 51.3845 68.5521 51.3943 68.6203L51.5502 69.9453L51.482 69.994L51.404 69.9648C51.2481 69.3607 50.9266 68.9028 50.459 68.5911C49.9913 68.2793 49.3872 68.1234 48.6663 68.1234C47.5458 68.1234 46.6787 68.4352 46.0746 69.049C45.4608 69.6725 45.1588 70.5202 45.1588 71.5919C45.1588 72.42 45.3342 73.1508 45.6849 73.7841C46.0357 74.4173 46.5131 74.9142 47.1074 75.2845C47.7114 75.6449 48.3934 75.8301 49.1631 75.8301C49.5918 75.8301 49.9328 75.7911 50.1959 75.7132C50.4492 75.6352 50.6441 75.4891 50.761 75.2747C50.8779 75.0604 50.9364 74.7291 50.9364 74.3004C50.9364 73.901 50.9071 73.5989 50.8584 73.4138C50.8 73.2287 50.6733 73.102 50.4687 73.0436C50.2641 72.9851 49.9231 72.9559 49.4652 72.9559C49.4165 72.9559 49.3872 72.9267 49.3872 72.8585C49.3872 72.7903 49.4067 72.761 49.4457 72.761C49.9718 72.7903 50.4395 72.8098 50.8682 72.8195C51.2969 72.8195 51.745 72.8195 52.2224 72.7903C52.2614 72.7903 52.2809 72.8195 52.2809 72.878C52.2809 72.9364 52.2614 72.9656 52.2224 72.9656C52.0081 72.9656 51.8619 72.9851 51.7645 73.0436C51.6671 73.102 51.6086 73.2482 51.5794 73.4528C51.5502 73.6671 51.5404 73.9887 51.5404 74.4368C51.5404 74.7096 51.5404 74.924 51.5697 75.0506C51.5891 75.187 51.5989 75.2845 51.6184 75.3527C51.6281 75.4111 51.6379 75.4793 51.6379 75.5475L51.6086 75.645C51.6086 75.645 51.5502 75.6742 51.4917 75.6937C51.0728 75.7911 50.6343 75.8788 50.1764 75.947C49.7185 76.0152 49.2801 76.0444 48.8611 76.0444" fill="#DBCEA0"/>
<path d="M67.8111 75.712L67.8598 75.79L67.8111 75.8679C67.5773 75.8679 67.3337 75.8679 67.0804 75.8387C66.8271 75.8192 66.5932 75.8095 66.3691 75.8095C66.1061 75.8095 65.882 75.8095 65.6969 75.8387C65.5118 75.8582 65.2974 75.8679 65.0733 75.8679L65.0246 75.79L65.0733 75.712C65.541 75.712 65.843 75.6536 65.9599 75.5269C66.0769 75.4003 66.0671 75.1567 65.9015 74.8059L63.0468 68.6679L63.2904 68.4535L60.8546 74.309C60.6403 74.8254 60.6305 75.1859 60.8059 75.3905C60.9813 75.6049 61.3613 75.7023 61.9264 75.7023L61.9848 75.7802L61.9264 75.8582C61.673 75.8582 61.4392 75.8582 61.2346 75.829C61.0203 75.8095 60.7572 75.7997 60.4357 75.7997C60.1434 75.7997 59.8998 75.7997 59.7244 75.829C59.5393 75.8484 59.325 75.8582 59.0717 75.8582L59.0229 75.7802L59.0717 75.7023C59.2958 75.7023 59.5004 75.6633 59.666 75.5756C59.8316 75.488 59.9875 75.3418 60.1434 75.1177C60.2895 74.9034 60.4454 74.5916 60.6208 74.1824L63.2611 67.83L63.3391 67.791L63.4073 67.83L66.3399 74.1142C66.5348 74.5331 66.7101 74.8644 66.8563 75.0885C67.0122 75.3223 67.1583 75.4782 67.3142 75.5659C67.4701 75.6536 67.6357 75.6926 67.8208 75.6926M61.7217 71.581L61.9069 71.3375H64.5082L64.5959 71.581H61.7217Z" fill="#DBCEA0"/>
<path d="M77.6707 67.9375C78.343 67.9375 78.8593 68.0739 79.2003 68.3564C79.5413 68.639 79.7265 69.019 79.7265 69.5159C79.7265 69.8276 79.6583 70.1199 79.5219 70.4025C79.3855 70.685 79.1906 70.9286 78.947 71.1429C78.7035 71.3573 78.4209 71.5327 78.0994 71.6593C77.7779 71.786 77.4369 71.8444 77.0764 71.8444C76.9984 71.8444 76.9107 71.8444 76.8133 71.8444C76.7159 71.8444 76.6185 71.8347 76.5308 71.8249V74.8453C76.5308 75.0888 76.56 75.2739 76.6087 75.4006C76.6574 75.5273 76.7646 75.6149 76.9302 75.6539C77.0959 75.6929 77.3394 75.7124 77.6512 75.7124L77.6902 75.7903L77.6512 75.8683C77.4466 75.8683 77.2323 75.8683 76.9887 75.8585C76.7451 75.8585 76.4821 75.8488 76.1898 75.8488C75.917 75.8488 75.6636 75.8488 75.4103 75.8585C75.157 75.8585 74.9329 75.8683 74.7283 75.8683L74.6991 75.7903L74.7283 75.7124C75.0498 75.7124 75.2934 75.6929 75.459 75.6539C75.6247 75.6149 75.7318 75.5273 75.7903 75.4006C75.8488 75.2739 75.878 75.0888 75.878 74.8453V68.9995C75.878 68.7559 75.8488 68.5708 75.8 68.4539C75.7416 68.337 75.6344 68.2493 75.4785 68.2006C75.3226 68.1518 75.0791 68.1324 74.7576 68.1324L74.7186 68.0544L74.7576 67.9765C74.9524 67.9765 75.1765 67.9765 75.4201 67.996C75.6636 68.0057 75.9267 68.0154 76.1995 68.0154C76.4139 68.0154 76.6769 68.0057 76.9595 67.9765C77.2518 67.9472 77.4856 67.9375 77.6707 67.9375ZM79.025 69.9445C79.025 69.4866 78.947 69.1261 78.8009 68.8631C78.6547 68.5903 78.4599 68.3954 78.2163 68.2785C77.9727 68.1616 77.6902 68.1031 77.3784 68.1031C77.1738 68.1031 77.0082 68.1129 76.8815 68.1518C76.7549 68.1811 76.6672 68.259 76.6087 68.3857C76.5503 68.5123 76.5308 68.7267 76.5308 69.0287V71.5326C76.6477 71.5326 76.7743 71.5521 76.9205 71.5619C77.0569 71.5716 77.1835 71.5814 77.2907 71.5814C77.9045 71.5814 78.343 71.4547 78.6158 71.2014C78.8886 70.9481 79.0152 70.5291 79.0152 69.9543M81.2464 75.8683C81.1002 75.8683 80.8664 75.7026 80.5351 75.3519C80.2039 75.0109 79.8141 74.5237 79.3465 73.9002C78.8788 73.2766 78.3624 72.5264 77.7974 71.6593L78.4014 71.4547C79.1224 72.5167 79.7362 73.3546 80.2428 73.9781C80.7495 74.6017 81.1976 75.0401 81.5776 75.3129C81.9673 75.5857 82.3376 75.7221 82.6981 75.7221L82.737 75.8001L82.6981 75.878H81.2366L81.2464 75.8683Z" fill="#DBCEA0"/>
<path d="M13.3769 82.4742H12.7534V83.9356H12.5293V82.4742H11.896V82.2793H13.3769V82.4742Z" fill="white"/>
<path d="M14.3807 83.9453V84.5494H14.1566V83.9453L13.4161 82.2793H13.65L14.2638 83.692L14.8873 82.2793H15.1114L14.3709 83.9453H14.3807ZM13.6207 83.8382H14.9263V84.0038H13.6207V83.8382Z" fill="white"/>
<path d="M16.7479 82.366C16.8745 82.4342 16.972 82.5316 17.0402 82.668C17.1084 82.7947 17.1473 82.9408 17.1473 83.1064C17.1473 83.2721 17.1084 83.4182 17.0402 83.5449C16.972 83.6715 16.8745 83.769 16.7479 83.8469C16.6212 83.9151 16.4848 83.9541 16.3192 83.9541C16.1828 83.9541 16.0659 83.9249 15.9587 83.8664C15.8515 83.8079 15.7638 83.73 15.6956 83.6228V84.5484H15.4716V82.2783H15.6859V82.6096C15.7541 82.5024 15.8418 82.4147 15.949 82.3562C16.0561 82.2978 16.1828 82.2686 16.3192 82.2686C16.4751 82.2686 16.6115 82.3075 16.7381 82.3757M16.631 83.6715C16.7284 83.6131 16.7966 83.5449 16.8551 83.4475C16.9038 83.35 16.933 83.2331 16.933 83.1064C16.933 82.9798 16.9038 82.8726 16.8551 82.7654C16.7966 82.668 16.7284 82.5901 16.631 82.5414C16.5335 82.4829 16.4264 82.4634 16.3192 82.4634C16.212 82.4634 16.0951 82.4926 15.9977 82.5414C15.9002 82.5998 15.832 82.668 15.7736 82.7654C15.7151 82.8629 15.6956 82.9798 15.6956 83.1064C15.6956 83.2331 15.7249 83.35 15.7736 83.4475C15.832 83.5449 15.9002 83.6228 15.9977 83.6715C16.0951 83.73 16.1925 83.7495 16.3192 83.7495C16.4459 83.7495 16.5433 83.7203 16.631 83.6715Z" fill="white"/>
<path d="M17.9074 82.4742V83.1172H18.6381V83.2828H17.9074V83.9356H17.6833V83.2828H17.4592V83.1172H17.6833V82.2793H18.8622V82.4742H17.9074Z" fill="white"/>
<path d="M20.3919 82.9993C20.4991 83.087 20.5576 83.2234 20.5576 83.389C20.5576 83.5546 20.4991 83.7008 20.3822 83.7982C20.2653 83.8956 20.0996 83.9443 19.8756 83.9346H19.2228V82.2686H19.4469V82.8531H19.9243C20.1289 82.8531 20.2945 82.9116 20.4017 82.9993M20.2166 83.6715C20.2945 83.6033 20.3335 83.5156 20.3335 83.389C20.3335 83.2623 20.2945 83.1746 20.2166 83.1162C20.1386 83.0577 20.0217 83.0285 19.8658 83.0285H19.4469V83.7592H19.8658C20.0217 83.7592 20.1386 83.7397 20.2166 83.6715ZM20.8401 82.2783H21.0642V83.9346H20.8401V82.2783Z" fill="white"/>
<path d="M21.6975 82.2793H21.9216V83.01H22.9641V82.2793H23.1882V83.9356H22.9641V83.2049H21.9216V83.9356H21.6975V82.2793Z" fill="white"/>
<path d="M25.3317 83.9453V84.5494H25.1077V83.9453L24.3672 82.2793H24.601L25.2246 83.692L25.8481 82.2793H26.0722L25.3317 83.9453Z" fill="white"/>
<path d="M26.4131 82.2797H26.6372V83.595L27.7479 82.2797H27.9427V83.936H27.7186V82.6207L26.6177 83.936H26.4131V82.2797ZM26.832 81.929C26.7443 81.8608 26.7054 81.7536 26.7054 81.627H26.8613C26.8613 81.7049 26.8905 81.7731 26.9489 81.8218C27.0074 81.8705 27.0756 81.8998 27.173 81.8998C27.2705 81.8998 27.3387 81.8803 27.3971 81.8218C27.4556 81.7731 27.4848 81.7049 27.4848 81.627H27.6504C27.6504 81.7536 27.6017 81.8608 27.5238 81.929C27.4361 81.9972 27.3289 82.0362 27.1828 82.0362C27.0366 82.0362 26.9295 81.9972 26.8418 81.929" fill="white"/>
<path d="M30.0179 83.1951H29.6379V83.9356H29.4138V82.2793H29.6379V83.01H30.0179L30.6025 82.2793H30.846L30.1933 83.0782L30.8947 83.9356H30.6317L30.0179 83.1951Z" fill="white"/>
<path d="M32.639 83.1746H31.2555C31.2652 83.35 31.3334 83.4864 31.4503 83.5936C31.5672 83.7007 31.7231 83.7494 31.9082 83.7494C32.0154 83.7494 32.1031 83.73 32.1908 83.691C32.2785 83.652 32.3564 83.6033 32.4149 83.5254L32.5415 83.6715C32.4636 83.7592 32.3759 83.8274 32.2687 83.8761C32.1616 83.9248 32.0349 83.9443 31.9082 83.9443C31.7426 83.9443 31.5867 83.9053 31.4503 83.8371C31.3237 83.7689 31.2165 83.6618 31.1385 83.5351C31.0606 83.4084 31.0314 83.2623 31.0314 83.0967C31.0314 82.931 31.0703 82.7946 31.1385 82.6582C31.2067 82.5316 31.3042 82.4341 31.4308 82.3562C31.5575 82.288 31.6939 82.249 31.8498 82.249C32.0057 82.249 32.1421 82.288 32.259 82.3562C32.3856 82.4244 32.4733 82.5218 32.5415 82.6582C32.6097 82.7849 32.6487 82.931 32.6487 83.0967V83.1649L32.639 83.1746ZM31.4308 82.6095C31.3237 82.7069 31.2652 82.8433 31.2457 83.009H32.4246C32.4051 82.8433 32.3467 82.7069 32.2395 82.6095C32.1323 82.5121 31.9959 82.4536 31.8303 82.4536C31.6647 82.4536 31.538 82.5023 31.4308 82.6095Z" fill="white"/>
<path d="M35.4253 82.2793V83.9356H33.1357V82.2793H33.3598V83.7407H34.1782V82.2793H34.4023V83.7407H35.2013V82.2793H35.4253Z" fill="white"/>
<path d="M37.5201 83.1746H36.1366C36.1463 83.35 36.2145 83.4864 36.3314 83.5936C36.4483 83.7007 36.6042 83.7494 36.7893 83.7494C36.8965 83.7494 36.9842 83.73 37.0719 83.691C37.1596 83.652 37.2375 83.6033 37.296 83.5254L37.4226 83.6715C37.3447 83.7592 37.257 83.8274 37.1498 83.8761C37.0427 83.9248 36.916 83.9443 36.7893 83.9443C36.6237 83.9443 36.4678 83.9053 36.3314 83.8371C36.2048 83.7689 36.0976 83.6618 36.0196 83.5351C35.9417 83.4084 35.9125 83.2623 35.9125 83.0967C35.9125 82.931 35.9514 82.7946 36.0196 82.6582C36.0878 82.5316 36.1853 82.4341 36.3119 82.3562C36.4386 82.288 36.575 82.249 36.7309 82.249C36.8868 82.249 37.0232 82.288 37.1401 82.3562C37.2667 82.4244 37.3544 82.5218 37.4226 82.6582C37.4908 82.7849 37.5298 82.931 37.5298 83.0967V83.1649L37.5201 83.1746ZM36.3119 82.6095C36.2048 82.7069 36.1463 82.8433 36.1268 83.009H37.3057C37.2862 82.8433 37.2278 82.7069 37.1206 82.6095C37.0134 82.5121 36.877 82.4536 36.7114 82.4536C36.5458 82.4536 36.4191 82.5023 36.3119 82.6095Z" fill="white"/>
<path d="M38.017 82.2793H38.2411V83.01H39.2836V82.2793H39.5076V83.9356H39.2836V83.2049H38.2411V83.9356H38.017V82.2793Z" fill="white"/>
<path d="M40.1409 81.8695L40.0922 81.7526L40.1409 81.6454L40.2578 81.5967L40.3747 81.6454L40.4234 81.7526L40.3747 81.8695L40.2578 81.9182L40.1409 81.8695ZM40.1506 82.2787H40.3747V83.935H40.1506V82.2787Z" fill="white"/>
<path d="M42.0798 81.5967H41.8752V84.5488H42.0798V81.5967Z" fill="white"/>
<path d="M45.0515 83.1951H44.691V83.9356H44.467V83.1951H44.1065L43.5998 83.9356H43.327L43.9213 83.0782L43.3757 82.2793H43.6193L44.1065 83.01H44.467V82.2793H44.691V83.01H45.0515L45.5387 82.2793H45.7822L45.2269 83.088L45.831 83.9356H45.5582L45.0515 83.1951Z" fill="white"/>
<path d="M46.201 82.2793H46.4251V83.5946L47.5261 82.2793H47.7307V83.9356H47.5066V82.6203L46.3959 83.9356H46.201V82.2793Z" fill="white"/>
<path d="M49.7281 82.2783V83.9346H49.504V82.4732H48.705L48.6856 82.8824C48.6661 83.2234 48.6271 83.4962 48.5686 83.6813C48.5102 83.8664 48.3933 83.9541 48.2276 83.9541C48.1789 83.9541 48.1302 83.9541 48.062 83.9249L48.0815 83.73H48.1594C48.2471 83.7397 48.3153 83.7008 48.3543 83.6228C48.403 83.5449 48.4322 83.4474 48.442 83.3305C48.4615 83.2136 48.4712 83.0577 48.481 82.8629L48.5102 82.2686H49.7281V82.2783Z" fill="white"/>
<path d="M50.6148 83.8371C50.4881 83.7689 50.3809 83.6618 50.3127 83.5351C50.2348 83.4084 50.2056 83.2623 50.2056 83.0967C50.2056 82.931 50.2445 82.7849 50.3127 82.6582C50.3907 82.5316 50.4881 82.4341 50.6148 82.3562C50.7414 82.288 50.8876 82.249 51.0435 82.249C51.1993 82.249 51.3455 82.288 51.4722 82.3562C51.5988 82.4244 51.6962 82.5316 51.7742 82.6582C51.8424 82.7849 51.8814 82.931 51.8814 83.0967C51.8814 83.2623 51.8424 83.4084 51.7742 83.5351C51.706 83.6618 51.5988 83.7592 51.4722 83.8371C51.3455 83.9053 51.1993 83.9443 51.0435 83.9443C50.8876 83.9443 50.7414 83.9053 50.6148 83.8371ZM51.365 83.6715C51.4624 83.613 51.5306 83.5448 51.5891 83.4474C51.6378 83.35 51.667 83.2331 51.667 83.1064C51.667 82.9798 51.6378 82.8628 51.5891 82.7654C51.5404 82.668 51.4624 82.59 51.365 82.5413C51.2676 82.4926 51.1701 82.4634 51.0435 82.4634C50.9168 82.4634 50.8194 82.4926 50.7219 82.5413C50.6245 82.5998 50.5563 82.668 50.4979 82.7654C50.4491 82.8628 50.4199 82.9798 50.4199 83.1064C50.4199 83.2331 50.4491 83.35 50.4979 83.4474C50.5563 83.5448 50.6245 83.6228 50.7219 83.6715C50.8194 83.73 50.9168 83.7494 51.0435 83.7494C51.1701 83.7494 51.2676 83.7202 51.365 83.6715Z" fill="white"/>
<path d="M52.3683 82.2797H52.5924V83.595L53.7031 82.2797H53.8979V83.936H53.6738V82.6207L52.5729 83.936H52.3683V82.2797ZM52.7872 81.929C52.6995 81.8608 52.6606 81.7536 52.6606 81.627H52.8165C52.8165 81.7049 52.8457 81.7731 52.9041 81.8218C52.9626 81.8705 53.0308 81.8998 53.1282 81.8998C53.2257 81.8998 53.2939 81.8803 53.3523 81.8218C53.4108 81.7731 53.44 81.7049 53.44 81.627H53.6056C53.6056 81.7536 53.5569 81.8608 53.4692 81.929C53.3816 81.9972 53.2744 82.0362 53.1282 82.0362C52.9821 82.0362 52.8749 81.9972 52.7872 81.929Z" fill="white"/>
<path d="M55.9733 83.1951H55.5934V83.9356H55.3693V82.2793H55.5934V83.01H55.9733L56.5579 82.2793H56.8015L56.1487 83.0782L56.8502 83.9356H56.5774L55.9733 83.1951Z" fill="white"/>
<path d="M57.3958 83.8371C57.2691 83.7689 57.1619 83.6618 57.0937 83.5351C57.0158 83.4084 56.9866 83.2623 56.9866 83.0967C56.9866 82.931 57.0255 82.7849 57.0937 82.6582C57.1717 82.5316 57.2691 82.4341 57.3958 82.3562C57.5224 82.288 57.6686 82.249 57.8245 82.249C57.9804 82.249 58.1265 82.288 58.2532 82.3562C58.3798 82.4244 58.4772 82.5316 58.5552 82.6582C58.6234 82.7849 58.6624 82.931 58.6624 83.0967C58.6624 83.2623 58.6234 83.4084 58.5552 83.5351C58.487 83.6618 58.3798 83.7592 58.2532 83.8371C58.1265 83.9053 57.9804 83.9443 57.8245 83.9443C57.6686 83.9443 57.5224 83.9053 57.3958 83.8371ZM58.146 83.6715C58.2434 83.613 58.3116 83.5448 58.3701 83.4474C58.4188 83.35 58.448 83.2331 58.448 83.1064C58.448 82.9798 58.4188 82.8628 58.3701 82.7654C58.3214 82.668 58.2434 82.59 58.146 82.5413C58.0486 82.4926 57.9511 82.4634 57.8245 82.4634C57.6978 82.4634 57.6004 82.4926 57.503 82.5413C57.4055 82.5998 57.3373 82.668 57.2789 82.7654C57.2301 82.8628 57.2009 82.9798 57.2009 83.1064C57.2009 83.2331 57.2301 83.35 57.2789 83.4474C57.3373 83.5448 57.4055 83.6228 57.503 83.6715C57.6004 83.73 57.6978 83.7494 57.8245 83.7494C57.9511 83.7494 58.0486 83.7202 58.146 83.6715Z" fill="white"/>
<path d="M61.0006 82.2793V83.9356H60.796V82.6203L60.1237 83.731H60.0263L59.354 82.6203V83.9356H59.1494V82.2793H59.3735L60.075 83.4679L60.796 82.2793H61.0006Z" fill="white"/>
<path d="M63.1247 82.2793V83.9356H62.9006V82.4742H61.8581V83.9356H61.634V82.2793H63.1247Z" fill="white"/>
<path d="M65.1219 82.2783V83.9346H64.8978V82.4732H64.0988L64.0794 82.8824C64.0599 83.2234 64.0209 83.4962 63.9624 83.6813C63.904 83.8664 63.7871 83.9541 63.6214 83.9541C63.5727 83.9541 63.524 83.9541 63.4558 83.9249L63.4753 83.73H63.5532C63.6409 83.7397 63.7091 83.7008 63.7481 83.6228C63.7968 83.5449 63.826 83.4474 63.8358 83.3305C63.8455 83.2136 63.865 83.0577 63.8748 82.8629L63.904 82.2686H65.1219V82.2783Z" fill="white"/>
<path d="M67.207 83.1746H65.8235C65.8332 83.35 65.9014 83.4864 66.0183 83.5936C66.1352 83.7007 66.2911 83.7494 66.4762 83.7494C66.5834 83.7494 66.6711 83.73 66.7588 83.691C66.8465 83.652 66.9244 83.6033 66.9829 83.5254L67.1095 83.6715C67.0316 83.7592 66.9439 83.8274 66.8367 83.8761C66.7296 83.9248 66.6029 83.9443 66.4762 83.9443C66.3106 83.9443 66.1547 83.9053 66.0183 83.8371C65.8917 83.7689 65.7845 83.6618 65.7065 83.5351C65.6286 83.4084 65.5994 83.2623 65.5994 83.0967C65.5994 82.931 65.6383 82.7946 65.7065 82.6582C65.7747 82.5316 65.8722 82.4341 65.9988 82.3562C66.1255 82.288 66.2619 82.249 66.4178 82.249C66.5737 82.249 66.7101 82.288 66.827 82.3562C66.9536 82.4244 67.0413 82.5218 67.1095 82.6582C67.1777 82.7849 67.2167 82.931 67.2167 83.0967V83.1649L67.207 83.1746ZM66.0086 82.6095C65.9014 82.7069 65.8429 82.8433 65.8235 83.009H67.0024C66.9926 82.8433 66.9244 82.7069 66.8172 82.6095C66.7101 82.5121 66.5737 82.4536 66.408 82.4536C66.2424 82.4536 66.1157 82.5023 66.0086 82.6095Z" fill="white"/>
<path d="M68.3078 83.1951H67.9278V83.9356H67.7135V82.2793H67.9278V83.01H68.3176L68.9021 82.2793H69.1457L68.4929 83.0782L69.1847 83.9356H68.9216L68.3078 83.1951Z" fill="white"/>
<path d="M69.7399 83.8479C69.6132 83.7797 69.5061 83.6725 69.4379 83.5458C69.3697 83.4192 69.3307 83.273 69.3307 83.1074C69.3307 82.9418 69.3697 82.7956 69.4379 82.669C69.5158 82.5423 69.6132 82.4449 69.7399 82.3669C69.8665 82.2987 70.0127 82.2598 70.1783 82.2598C70.3245 82.2598 70.4511 82.289 70.5583 82.3474C70.6752 82.4059 70.7629 82.4839 70.8214 82.591L70.6557 82.7079C70.5973 82.63 70.5291 82.5618 70.4511 82.5228C70.3634 82.4839 70.2758 82.4644 70.1783 82.4644C70.0614 82.4644 69.9542 82.4936 69.8568 82.5423C69.7594 82.6008 69.6912 82.669 69.6327 82.7664C69.5743 82.8638 69.5548 82.9807 69.5548 83.1074C69.5548 83.2341 69.584 83.351 69.6327 83.4484C69.6912 83.5458 69.7594 83.6238 69.8568 83.6725C69.9542 83.7309 70.0614 83.7504 70.1783 83.7504C70.2758 83.7504 70.3732 83.731 70.4511 83.692C70.5388 83.653 70.607 83.5945 70.6557 83.5069L70.8214 83.6238C70.7532 83.731 70.6655 83.8089 70.5583 83.8674C70.4414 83.9258 70.3147 83.955 70.1783 83.955C70.0127 83.955 69.8665 83.9161 69.7399 83.8479Z" fill="white"/>
<path d="M34.6461 27.4168L41.359 34.1297L48.0718 27.4168L41.359 20.7039L34.6461 27.4168ZM41.359 37.569L39.3714 35.5814L32.9215 29.1316L31.2068 27.4168L41.359 17.2646L51.5111 27.4168L41.359 37.569Z" fill="#BFAE79"/>
</svg>
