<svg width="22" height="26" viewBox="0 0 22 26" fill="none" xmlns="http://www.w3.org/2000/svg">
<path d="M21.6692 23.0679L20.6981 24.3072C20.3644 24.7336 19.8599 24.9998 19.3128 25.0337C18.0812 25.1105 15.4347 24.7966 11.8423 22.7502C6.6963 19.8184 2.84249 15.0906 1.11372 9.49326C-0.0644906 5.67805 0.244494 3.1465 0.589373 1.99067C0.744108 1.47406 1.11858 1.04903 1.61528 0.822449L3.05931 0.164637C3.66224 -0.110127 4.37868 0.097854 4.73326 0.650244L8.3426 6.27528C8.73259 6.88205 8.5473 7.68487 7.92981 8.06792L6.32474 9.06442C6.12829 9.18606 6.03662 9.4198 6.09919 9.63971C6.11956 9.71126 6.14333 9.79188 6.17049 9.88156C7.21338 13.2961 9.56108 16.1849 12.7179 17.9394C12.8008 17.9857 12.876 18.0262 12.9424 18.0615C13.1467 18.1698 13.3989 18.1335 13.5628 17.9723L14.9055 16.6519C15.4216 16.1444 16.2583 16.1444 16.7749 16.6519L21.5571 21.3549C22.0267 21.8171 22.0747 22.5498 21.6697 23.0674L21.6692 23.0679Z" fill="white"/>
</svg>
