<svg width="7" height="11" viewBox="0 0 7 11" fill="none" xmlns="http://www.w3.org/2000/svg">
<path d="M0.939899 5.05477L5.81178 0.182888C5.85704 0.137624 5.91078 0.101718 5.96992 0.077221C6.02906 0.0527239 6.09245 0.0401147 6.15646 0.0401147C6.22048 0.0401147 6.28386 0.0527239 6.343 0.077221C6.40215 0.101718 6.45588 0.137624 6.50115 0.182888C6.54641 0.228153 6.58232 0.28189 6.60682 0.341031C6.63131 0.400173 6.64392 0.46356 6.64392 0.527574C6.64392 0.591588 6.63131 0.654975 6.60682 0.714116C6.58232 0.773258 6.54641 0.826995 6.50115 0.872259L1.97335 5.39945L6.50115 9.92665C6.59256 10.0181 6.64392 10.142 6.64392 10.2713C6.64392 10.4006 6.59256 10.5246 6.50115 10.616C6.40973 10.7074 6.28574 10.7588 6.15646 10.7588C6.02718 10.7588 5.90319 10.7074 5.81178 10.616L0.939899 5.74414C0.894602 5.69889 0.858667 5.64516 0.83415 5.58602C0.809633 5.52687 0.797014 5.46348 0.797014 5.39945C0.797014 5.33543 0.809633 5.27203 0.83415 5.21289C0.858667 5.15374 0.894602 5.10001 0.939899 5.05477Z" fill="#0A011F"/>
</svg>
