<svg width="21" height="21" viewBox="0 0 21 21" fill="none" xmlns="http://www.w3.org/2000/svg">
<path d="M16.2645 3.75336C15.6106 3.75336 15.0845 4.30187 15.0845 4.98359C15.0845 5.66531 15.6106 6.21381 16.2645 6.21381C16.9185 6.21381 17.4446 5.66531 17.4446 4.98359C17.4446 4.30187 16.9185 3.75336 16.2645 3.75336Z" fill="white"/>
<path d="M16.2645 3.75336C15.6106 3.75336 15.0845 4.30187 15.0845 4.98359C15.0845 5.66531 15.6106 6.21381 16.2645 6.21381C16.9185 6.21381 17.4446 5.66531 17.4446 4.98359C17.4446 4.30187 16.9185 3.75336 16.2645 3.75336Z" fill="url(#paint0_radial_2180_14)"/>
<path d="M11.0107 5.32835C8.27476 5.32835 6.04993 7.64775 6.04993 10.5C6.04993 13.3522 8.27476 15.6716 11.0107 15.6716C13.7466 15.6716 15.9715 13.3522 15.9715 10.5C15.9715 7.64775 13.7466 5.32835 11.0107 5.32835ZM11.0107 13.8145C9.25939 13.8145 7.83129 12.3257 7.83129 10.5C7.83129 8.67424 9.25939 7.18544 11.0107 7.18544C12.762 7.18544 14.1901 8.67424 14.1901 10.5C14.1901 12.3257 12.762 13.8145 11.0107 13.8145Z" fill="white"/>
<path d="M11.0107 5.32835C8.27476 5.32835 6.04993 7.64775 6.04993 10.5C6.04993 13.3522 8.27476 15.6716 11.0107 15.6716C13.7466 15.6716 15.9715 13.3522 15.9715 10.5C15.9715 7.64775 13.7466 5.32835 11.0107 5.32835ZM11.0107 13.8145C9.25939 13.8145 7.83129 12.3257 7.83129 10.5C7.83129 8.67424 9.25939 7.18544 11.0107 7.18544C12.762 7.18544 14.1901 8.67424 14.1901 10.5C14.1901 12.3257 12.762 13.8145 11.0107 13.8145Z" fill="url(#paint1_radial_2180_14)"/>
<path d="M14.9493 21H6.90683C3.56959 21 0.856201 18.1713 0.856201 14.6922V6.30784C0.856201 2.82873 3.56959 0 6.90683 0H14.9493C18.2865 0 20.9999 2.82873 20.9999 6.30784V14.6922C20.9999 18.1713 18.2865 21 14.9493 21ZM6.90683 1.97463C4.61436 1.97463 2.75031 3.91791 2.75031 6.30784V14.6922C2.75031 17.0821 4.61436 19.0254 6.90683 19.0254H14.9493C17.2418 19.0254 19.1058 17.0821 19.1058 14.6922V6.30784C19.1058 3.91791 17.2418 1.97463 14.9493 1.97463H6.90683Z" fill="white"/>
<path d="M14.9493 21H6.90683C3.56959 21 0.856201 18.1713 0.856201 14.6922V6.30784C0.856201 2.82873 3.56959 0 6.90683 0H14.9493C18.2865 0 20.9999 2.82873 20.9999 6.30784V14.6922C20.9999 18.1713 18.2865 21 14.9493 21ZM6.90683 1.97463C4.61436 1.97463 2.75031 3.91791 2.75031 6.30784V14.6922C2.75031 17.0821 4.61436 19.0254 6.90683 19.0254H14.9493C17.2418 19.0254 19.1058 17.0821 19.1058 14.6922V6.30784C19.1058 3.91791 17.2418 1.97463 14.9493 1.97463H6.90683Z" fill="url(#paint2_radial_2180_14)"/>
<defs>
<radialGradient id="paint0_radial_2180_14" cx="0" cy="0" r="1" gradientUnits="userSpaceOnUse" gradientTransform="translate(16.1696 2.14872) rotate(89.6595) scale(13.6932 6.8596)">
<stop stop-color="#492E1E"/>
<stop offset="1" stop-color="#381D11"/>
</radialGradient>
<radialGradient id="paint1_radial_2180_14" cx="0" cy="0" r="1" gradientUnits="userSpaceOnUse" gradientTransform="translate(10.6116 -1.41728) rotate(89.6595) scale(57.5636 28.8365)">
<stop stop-color="#492E1E"/>
<stop offset="1" stop-color="#381D11"/>
</radialGradient>
<radialGradient id="paint2_radial_2180_14" cx="0" cy="0" r="1" gradientUnits="userSpaceOnUse" gradientTransform="translate(10.1177 -13.6957) rotate(89.6595) scale(116.872 58.5469)">
<stop stop-color="#492E1E"/>
<stop offset="1" stop-color="#381D11"/>
</radialGradient>
</defs>
</svg>
