<svg width="25" height="17" viewBox="0 0 25 17" fill="none" xmlns="http://www.w3.org/2000/svg">
<path d="M25 5.33086C25 2.3821 22.5486 0 19.514 0H5.48596C2.4514 0 0 2.3821 0 5.33086V11.6691C0 14.6179 2.4514 17 5.48596 17H19.514C22.5486 17 25 14.6179 25 11.6691V5.33086ZM16.7495 8.98272L10.4644 12.0049C10.216 12.1309 9.38445 11.963 9.38445 11.6901V5.47778C9.38445 5.20494 10.2268 5.02654 10.4752 5.16296L16.5011 8.34259C16.7495 8.47901 17.0194 8.8358 16.7603 8.97222L16.7495 8.98272Z" fill="white"/>
<path d="M25 5.33086C25 2.3821 22.5486 0 19.514 0H5.48596C2.4514 0 0 2.3821 0 5.33086V11.6691C0 14.6179 2.4514 17 5.48596 17H19.514C22.5486 17 25 14.6179 25 11.6691V5.33086ZM16.7495 8.98272L10.4644 12.0049C10.216 12.1309 9.38445 11.963 9.38445 11.6901V5.47778C9.38445 5.20494 10.2268 5.02654 10.4752 5.16296L16.5011 8.34259C16.7495 8.47901 17.0194 8.8358 16.7603 8.97222L16.7495 8.98272Z" fill="url(#paint0_radial_2180_12)"/>
<defs>
<radialGradient id="paint0_radial_2180_12" cx="0" cy="0" r="1" gradientUnits="userSpaceOnUse" gradientTransform="translate(11.4943 -11.087) rotate(89.4779) scale(94.6126 72.6598)">
<stop stop-color="#492E1E"/>
<stop offset="1" stop-color="#381D11"/>
</radialGradient>
</defs>
</svg>
