<svg width="998" height="1003" viewBox="0 0 998 1003" fill="none" xmlns="http://www.w3.org/2000/svg">
<path opacity="0.0344828" d="M426.834 623.927C323.967 539.23 238.949 453.086 184.649 382.286C157.497 346.883 138.04 315.335 127.867 289.737C122.781 276.937 120.024 265.645 119.774 256.115C119.525 246.588 121.782 238.847 126.692 233.105C131.602 227.363 138.979 223.839 148.583 222.425C158.191 221.011 170.003 221.715 183.732 224.408C211.191 229.793 246.231 243.117 286.477 263.207C366.964 303.385 468.184 370.582 571.051 455.279C673.919 539.977 758.936 626.121 813.236 696.921C840.388 732.324 859.844 763.871 870.017 789.47C875.104 802.27 877.861 813.562 878.11 823.092C878.359 832.619 876.103 840.358 871.192 846.1C866.282 851.843 858.906 855.368 849.301 856.781C839.693 858.196 827.882 857.492 814.152 854.799C786.694 849.414 751.653 836.09 711.407 816C630.921 775.822 529.702 708.625 426.834 623.927Z" stroke="#999999" stroke-width="0.852891"/>
<path opacity="0.0689655" d="M419.618 613.63C324.665 520.458 247.622 427.371 199.817 352.197C175.913 314.607 159.333 281.515 151.473 255.144C147.543 241.958 145.799 230.473 146.397 220.958C146.995 211.446 149.931 203.928 155.333 198.628C160.735 193.327 168.396 190.446 178.09 189.859C187.787 189.272 199.492 190.983 212.929 194.84C239.805 202.553 273.528 218.823 311.836 242.278C388.447 289.186 483.314 364.784 578.267 457.957C673.22 551.129 750.262 644.216 798.067 719.391C821.971 756.981 838.551 790.072 846.412 816.443C850.342 829.629 852.086 841.114 851.488 850.629C850.89 860.141 847.954 867.659 842.552 872.959C837.15 878.26 829.488 881.141 819.795 881.728C810.097 882.315 798.393 880.604 784.955 876.747C758.08 869.034 724.356 852.765 686.048 829.309C609.437 782.401 514.571 706.803 419.618 613.63Z" stroke="#999999" stroke-width="0.852891"/>
<path opacity="0.103448" d="M413.005 602.74C326.689 501.802 258.207 402.48 217.262 323.504C196.788 284.013 183.21 249.63 177.722 222.687C174.978 209.215 174.261 197.625 175.702 188.197C177.142 178.772 180.734 171.534 186.587 166.714C192.44 161.895 200.329 159.681 210.038 159.925C219.75 160.17 231.258 162.876 244.302 167.867C270.389 177.849 302.54 196.94 338.619 223.582C410.772 276.863 498.562 360.287 584.878 461.226C671.194 562.164 739.676 661.485 780.621 740.462C801.095 779.953 814.672 814.337 820.16 841.28C822.905 854.752 823.623 866.341 822.181 875.77C820.741 885.194 817.148 892.433 811.295 897.252C805.442 902.071 797.554 904.285 787.845 904.041C778.133 903.796 766.625 901.091 753.581 896.1C727.493 886.117 695.343 867.026 659.263 840.383C587.111 787.102 499.321 703.678 413.005 602.74Z" stroke="#999999" stroke-width="0.852891"/>
<path opacity="0.137931" d="M407.047 591.311C330.025 483.375 270.625 378.575 236.851 296.397C219.962 255.306 209.491 219.892 206.416 192.583C204.879 178.928 205.195 167.32 207.468 158.051C209.74 148.786 213.961 141.882 220.22 137.581C226.479 133.281 234.535 131.75 244.185 132.824C253.839 133.898 265.063 137.577 277.614 143.665C302.715 155.84 333.047 177.607 366.623 207.234C433.768 266.483 513.815 357.097 590.837 465.034C667.858 572.97 727.258 677.769 761.032 759.947C777.921 801.039 788.393 836.452 791.467 863.762C793.004 877.417 792.688 889.024 790.415 898.293C788.143 907.558 783.922 914.462 777.663 918.763C771.403 923.063 763.348 924.594 753.698 923.52C744.044 922.446 732.821 918.768 720.27 912.68C695.168 900.505 664.836 878.737 631.26 849.11C564.115 789.861 484.069 699.247 407.047 591.311Z" stroke="#999999" stroke-width="0.852891"/>
<path opacity="0.172414" d="M401.787 579.403C334.645 465.29 284.781 355.81 258.434 271.057C245.259 228.677 237.972 192.503 237.335 165.034C237.017 151.3 238.362 139.764 241.45 130.724C244.536 121.688 249.355 115.171 255.973 111.422C262.591 107.673 270.752 106.837 280.27 108.732C289.792 110.627 300.646 115.252 312.609 122.39C336.533 136.666 364.816 160.945 395.632 193.331C457.26 258.096 528.952 355.211 596.094 469.323C663.236 583.435 713.101 692.917 739.448 777.67C752.622 820.049 759.909 856.223 760.546 883.691C760.864 897.426 759.519 908.962 756.431 918.002C753.345 927.037 748.526 933.554 741.908 937.304C735.29 941.053 727.129 941.889 717.611 939.994C708.089 938.098 697.235 933.473 685.272 926.336C661.348 912.06 633.065 887.781 602.249 855.396C540.622 790.63 468.929 693.515 401.787 579.403Z" stroke="#999999" stroke-width="0.852891"/>
<path opacity="0.206897" d="M397.268 567.074C340.517 447.654 300.567 334.324 281.848 247.641C272.488 204.296 268.442 167.636 270.247 140.218C271.15 126.508 273.514 115.132 277.393 106.391C281.271 97.6535 286.65 91.5727 293.577 88.4035C300.503 85.2345 308.708 85.0995 318.021 87.8013C327.338 90.5041 337.739 96.0395 349.022 104.173C371.588 120.44 397.607 147.046 425.429 181.943C481.069 251.733 543.864 354.61 600.614 474.03C657.365 593.45 697.315 706.779 716.034 793.462C725.394 836.807 729.44 873.467 727.635 900.885C726.732 914.594 724.368 925.971 720.489 934.712C716.611 943.449 711.232 949.53 704.306 952.699C697.38 955.868 689.175 956.003 679.861 953.301C670.544 950.599 660.143 945.063 648.86 936.93C626.294 920.663 600.276 894.057 572.453 859.16C516.813 789.37 454.019 686.494 397.268 567.074Z" stroke="#999999" stroke-width="0.852891"/>
<path opacity="0.241379" d="M393.523 554.391C347.595 430.572 317.863 314.258 306.915 226.304C301.441 182.323 300.666 145.457 304.9 118.297C307.017 104.717 310.382 93.586 315.023 85.2102C319.661 76.8375 325.561 71.2403 332.743 68.6753C339.925 66.1104 348.11 66.6774 357.148 70.1653C366.19 73.6547 376.06 80.059 386.578 89.1264C407.612 107.261 431.169 135.991 455.786 173.135C505.016 247.418 558.433 355.272 604.361 479.091C650.289 602.91 680.021 719.224 690.969 807.178C696.443 851.159 697.218 888.025 692.984 915.185C690.867 928.765 687.501 939.896 682.861 948.272C678.222 956.645 672.323 962.242 665.141 964.807C657.959 967.372 649.773 966.805 640.735 963.317C631.694 959.828 621.824 953.423 611.306 944.356C590.272 926.221 566.715 897.491 542.098 860.347C492.869 786.064 439.451 678.21 393.523 554.391Z" stroke="#999999" stroke-width="0.852891"/>
<path opacity="0.275862" d="M390.579 541.423C355.824 414.148 336.536 295.734 333.442 207.178C331.895 162.897 334.398 126.106 341.028 99.4116C347.668 72.6775 358.402 56.2424 373.173 52.3588C387.943 48.4753 405.614 57.442 424.987 77.3367C444.331 97.2015 465.246 127.836 486.469 166.943C528.914 245.153 572.549 357.166 607.304 484.441C642.059 611.717 661.347 730.131 664.441 818.687C665.988 862.969 663.485 899.76 656.855 926.454C650.215 953.188 639.481 969.623 624.71 973.507C609.94 977.39 592.269 968.423 572.896 948.529C553.552 928.664 532.637 898.03 511.413 858.922C468.969 780.712 425.334 668.699 390.579 541.423Z" stroke="#999999" stroke-width="0.852891"/>
<path opacity="0.310345" d="M388.461 528.237C365.143 398.474 356.445 278.86 361.229 190.377C363.62 146.132 369.382 109.694 378.358 83.6691C387.347 57.6049 399.5 42.15 414.56 39.5443C429.619 36.9386 446.427 47.3829 463.959 68.8583C481.465 90.3017 499.579 122.608 517.248 163.382C552.585 244.924 586.105 360.243 609.423 490.006C632.741 619.769 641.437 739.383 636.654 827.866C634.262 872.111 628.501 908.55 619.525 934.575C610.536 960.639 598.382 976.093 583.323 978.699C568.263 981.304 551.456 970.861 533.924 949.386C516.418 927.942 498.304 895.635 480.634 854.861C445.298 773.319 411.779 658 388.461 528.237Z" stroke="#999999" stroke-width="0.852891"/>
<path opacity="0.344828" d="M387.183 514.906C375.479 383.642 377.439 263.741 390.064 176.004C396.376 132.131 405.352 96.3248 416.605 71.1662C427.875 45.9701 441.355 31.6137 456.589 30.3056C471.823 28.9978 487.639 40.8394 503.197 63.7324C518.731 86.5914 533.908 120.324 547.888 162.455C575.847 246.708 598.996 364.454 610.7 495.718C622.403 626.981 620.443 746.883 607.819 834.62C601.506 878.493 592.53 914.299 581.277 939.458C570.007 964.654 556.527 979.01 541.293 980.318C526.059 981.626 510.243 969.784 494.685 946.891C479.151 924.032 463.975 890.299 449.994 848.169C422.035 763.915 398.887 646.17 387.183 514.906Z" stroke="#999999" stroke-width="0.852891"/>
<path opacity="0.37931" d="M386.757 501.501C386.757 369.736 399.359 250.458 419.728 164.134C429.914 120.969 442.035 86.0668 455.48 61.9663C468.945 37.8298 483.65 24.6802 498.942 24.6802C514.235 24.6803 528.938 37.8299 542.403 61.9663C555.848 86.0668 567.971 120.969 578.156 164.134C598.525 250.458 611.128 369.736 611.128 501.501C611.128 633.266 598.525 752.544 578.156 838.868C567.971 882.033 555.848 916.936 542.403 941.037C528.938 965.173 514.234 978.322 498.942 978.322C483.65 978.322 468.945 965.173 455.48 941.037C442.035 916.936 429.914 882.033 419.728 838.868C399.359 752.544 386.757 633.266 386.757 501.501Z" stroke="#999999" stroke-width="0.852891"/>
<path opacity="0.413793" d="M387.182 488.094C398.886 356.831 422.035 239.085 449.994 154.831C463.974 112.701 479.15 78.968 494.684 56.1091C510.242 33.2162 526.058 21.3747 541.292 22.6823C556.526 23.9901 570.006 38.3467 581.276 63.5428C592.529 88.7015 601.506 124.508 607.818 168.38C620.443 256.118 622.403 376.019 610.699 507.283C598.995 638.547 575.847 756.292 547.888 840.546C533.907 882.676 518.73 916.409 503.196 939.268C487.638 962.161 471.822 974.003 456.588 972.695C441.354 971.387 427.874 957.03 416.604 931.834C405.351 906.676 396.375 870.869 390.063 826.997C377.439 739.259 375.479 619.358 387.182 488.094Z" stroke="#999999" stroke-width="0.852891"/>
<path opacity="0.448276" d="M388.461 474.762C411.779 344.999 445.298 229.682 480.634 148.14C498.304 107.365 516.418 75.058 533.924 53.6146C551.456 32.1392 568.263 21.6959 583.323 24.3014C598.383 26.9071 610.536 42.3612 619.526 68.4253C628.501 94.4507 634.262 130.889 636.654 175.134C641.437 263.618 632.741 383.23 609.423 512.993C586.105 642.757 552.585 758.075 517.249 839.617C499.579 880.391 481.465 912.699 463.959 934.142C446.427 955.617 429.62 966.061 414.56 963.455C399.501 960.849 387.347 945.395 378.358 919.331C369.382 893.306 363.621 856.868 361.229 812.622C356.446 724.139 365.143 604.526 388.461 474.762Z" stroke="#999999" stroke-width="0.852891"/>
<path opacity="0.482759" d="M390.58 461.578C425.335 334.302 468.969 222.289 511.414 144.08C532.637 104.972 553.552 74.3379 572.896 54.4731C592.269 34.5784 609.94 25.6118 624.71 29.4952C639.481 33.3787 650.215 49.8137 656.855 76.548C663.485 103.242 665.988 140.033 664.441 184.314C661.347 272.87 642.06 391.284 607.305 518.56C572.55 645.835 528.914 757.849 486.47 836.058C465.246 875.166 444.331 905.8 424.987 925.665C405.614 945.56 387.943 954.526 373.173 950.643C358.402 946.759 347.668 930.324 341.028 903.59C334.398 876.896 331.895 840.105 333.442 795.824C336.536 707.268 355.825 588.853 390.58 461.578Z" stroke="#999999" stroke-width="0.852891"/>
<path opacity="0.517241" d="M393.522 448.609C439.45 324.79 492.868 216.936 542.097 142.653C566.714 105.509 590.271 76.7795 611.305 58.6446C621.823 49.5772 631.693 43.1725 640.734 39.6831C649.772 36.1951 657.958 35.6285 665.14 38.1935C672.322 40.7584 678.222 46.3557 682.861 54.7284C687.501 63.1042 690.866 74.2357 692.983 87.8154C697.217 114.975 696.442 151.841 690.968 195.822C680.02 283.776 650.288 400.09 604.36 523.909C558.432 647.728 505.015 755.583 455.785 829.865C431.168 867.009 407.612 895.739 386.577 913.874C376.059 922.941 366.19 929.346 357.148 932.835C348.11 936.323 339.924 936.89 332.742 934.325C325.56 931.76 319.66 926.163 315.022 917.79C310.381 909.414 307.016 898.283 304.899 884.703C300.665 857.543 301.44 820.677 306.914 776.697C317.862 688.742 347.594 572.428 393.522 448.609Z" stroke="#999999" stroke-width="0.852891"/>
<path opacity="0.551724" d="M397.268 435.927C454.019 316.507 516.813 213.63 572.453 143.841C600.276 108.943 626.294 82.3374 648.86 66.0704C660.143 57.9369 670.544 52.4016 679.861 49.6987C689.175 46.9969 697.38 47.1322 704.306 50.3014C711.232 53.4707 716.612 59.5511 720.489 68.2885C724.368 77.0293 726.732 88.4059 727.635 102.115C729.441 129.533 725.394 166.193 716.034 209.538C697.316 296.222 657.365 409.551 600.614 528.971C543.863 648.391 481.069 751.267 425.429 821.057C397.607 855.954 371.588 882.56 349.022 898.827C337.74 906.961 327.338 912.496 318.021 915.199C308.708 917.901 300.503 917.766 293.577 914.597C286.651 911.427 281.271 905.347 277.393 896.609C273.515 887.868 271.15 876.492 270.247 862.783C268.442 835.364 272.488 798.705 281.848 755.36C300.567 668.676 340.517 555.347 397.268 435.927Z" stroke="#999999" stroke-width="0.852891"/>
<path opacity="0.586207" d="M401.789 423.599C468.931 309.487 540.623 212.372 602.251 147.606C633.067 115.221 661.35 90.9414 685.274 76.666C697.237 69.5282 708.091 64.9031 717.613 63.0073C727.131 61.1123 735.292 61.9488 741.91 65.698C748.528 69.4471 753.347 75.9642 756.433 85C759.521 94.0393 760.866 105.576 760.548 119.31C759.911 146.779 752.624 182.953 739.449 225.333C713.102 310.086 663.238 419.566 596.096 533.679C528.954 647.791 457.261 744.906 395.634 809.672C364.818 842.057 336.535 866.336 312.611 880.611C300.648 887.749 289.794 892.374 280.272 894.27C270.754 896.165 262.593 895.329 255.975 891.579C249.357 887.83 244.538 881.313 241.452 872.277C238.364 863.238 237.019 851.702 237.337 837.967C237.974 810.499 245.261 774.325 258.435 731.946C284.782 647.193 334.647 537.711 401.789 423.599Z" stroke="#999999" stroke-width="0.852891"/>
<path opacity="0.62069" d="M407.046 411.69C484.068 303.754 564.114 213.14 631.26 153.891C664.835 124.264 695.167 102.497 720.269 90.3215C732.82 84.2339 744.043 80.5546 753.697 79.4803C763.347 78.4065 771.403 79.9374 777.662 84.2379C783.921 88.5385 788.142 95.4426 790.415 104.708C792.688 113.977 793.003 125.584 791.466 139.239C788.392 166.549 777.92 201.962 761.032 243.054C727.257 325.232 667.857 430.032 590.835 537.968C513.813 645.904 433.768 736.518 366.622 795.767C333.046 825.394 302.714 847.162 277.612 859.337C265.061 865.424 253.838 869.103 244.184 870.177C234.534 871.251 226.479 869.72 220.22 865.42C213.96 861.119 209.739 854.215 207.467 844.95C205.194 835.681 204.878 824.074 206.415 810.419C209.489 783.109 219.961 747.695 236.85 706.603C270.624 624.426 330.024 519.626 407.046 411.69Z" stroke="#999999" stroke-width="0.852891"/>
<path opacity="0.655172" d="M413.005 400.26C499.321 299.322 587.11 215.898 659.263 162.617C695.342 135.975 727.493 116.883 753.58 106.901C766.625 101.91 778.132 99.2041 787.845 98.9595C797.554 98.7151 805.442 100.93 811.295 105.749C817.148 110.568 820.741 117.806 822.181 127.231C823.622 136.659 822.904 148.249 820.16 161.72C814.672 188.663 801.095 223.047 780.621 262.539C739.675 341.515 671.194 440.836 584.878 541.774C498.562 642.712 410.772 726.136 338.619 779.417C302.54 806.06 270.389 825.151 244.301 835.133C231.257 840.124 219.75 842.83 210.038 843.075C200.329 843.319 192.44 841.104 186.587 836.285C180.734 831.466 177.142 824.228 175.701 814.804C174.26 805.376 174.977 793.785 177.722 780.314C183.21 753.37 196.788 718.987 217.262 679.496C258.207 600.52 326.689 501.198 413.005 400.26Z" stroke="#999999" stroke-width="0.852891"/>
<path opacity="0.689655" d="M419.617 389.37C514.571 296.197 609.436 220.599 686.047 173.691C724.356 150.235 758.079 133.966 784.955 126.253C798.393 122.396 810.097 120.685 819.794 121.272C829.488 121.859 837.149 124.74 842.551 130.041C847.953 135.342 850.889 142.859 851.487 152.371C852.085 161.886 850.342 173.371 846.411 186.557C838.551 212.928 821.97 246.019 798.066 283.609C750.262 358.784 673.219 451.871 578.266 545.044C483.313 638.216 388.447 713.814 311.836 760.722C273.527 784.178 239.804 800.447 212.929 808.161C199.491 812.017 187.787 813.728 178.089 813.141C168.396 812.554 160.735 809.674 155.333 804.373C149.93 799.072 146.995 791.554 146.396 782.043C145.798 772.527 147.542 761.042 151.472 747.857C159.333 721.485 175.913 688.394 199.817 650.804C247.621 575.629 324.664 482.543 419.617 389.37Z" stroke="#999999" stroke-width="0.852891"/>
<path opacity="0.724138" d="M426.833 379.073C529.7 294.375 630.92 227.178 711.406 187C751.652 166.91 786.693 153.586 814.151 148.201C827.88 145.508 839.692 144.804 849.3 146.219C858.905 147.632 866.281 151.157 871.192 156.899C876.102 162.641 878.358 170.381 878.109 179.908C877.86 189.438 875.103 200.73 870.016 213.53C859.843 239.129 840.386 270.676 813.234 306.079C758.935 376.879 673.917 463.023 571.05 547.721C468.182 632.418 366.962 699.615 286.476 739.793C246.23 759.883 211.19 773.207 183.731 778.592C170.002 781.285 158.19 781.989 148.582 780.574C138.977 779.161 131.602 775.636 126.692 769.894C121.781 764.152 119.524 756.412 119.773 746.885C120.022 737.355 122.78 726.063 127.866 713.263C138.039 687.664 157.496 656.117 184.648 620.714C238.947 549.914 323.965 463.77 426.833 379.073Z" stroke="#999999" stroke-width="0.852891"/>
<path opacity="0.758621" d="M434.597 369.417C544.596 293.839 651.4 235.553 735.149 202.411C777.026 185.839 813.117 175.563 840.949 172.546C854.865 171.038 866.694 171.348 876.14 173.578C885.583 175.808 892.617 179.95 896.998 186.089C901.38 192.229 902.941 200.132 901.846 209.602C900.751 219.074 897.002 230.087 890.798 242.403C878.39 267.034 856.205 296.798 826.012 329.744C765.631 395.632 673.284 474.177 563.285 549.755C453.286 625.333 346.482 683.619 262.734 716.76C220.856 733.332 184.765 743.608 156.933 746.624C143.017 748.133 131.188 747.824 121.742 745.593C112.3 743.364 105.265 739.221 100.884 733.082C96.5025 726.942 94.9419 719.039 96.0363 709.57C97.1311 700.097 100.88 689.084 107.084 676.768C119.492 652.137 141.677 622.373 171.87 589.427C232.252 523.54 324.598 444.995 434.597 369.417Z" stroke="#999999" stroke-width="0.852891"/>
<path opacity="0.793103" d="M442.852 360.448C559.145 294.565 670.72 245.635 757.093 219.782C800.284 206.855 837.15 199.704 865.144 199.079C879.142 198.767 890.898 200.087 900.11 203.117C909.319 206.145 915.959 210.873 919.778 217.363C923.597 223.854 924.449 231.86 922.518 241.199C920.586 250.542 915.872 261.193 908.598 272.932C894.049 296.408 869.305 324.162 836.3 354.4C770.296 414.873 671.325 485.222 555.031 551.105C438.738 616.988 327.163 665.918 240.79 691.771C197.6 704.699 160.733 711.849 132.739 712.474C118.741 712.787 106.985 711.467 97.7727 708.437C88.5641 705.408 81.9252 700.68 78.1063 694.19C74.2874 687.7 73.4343 679.694 75.3655 670.354C77.2975 661.011 82.0109 650.361 89.2852 638.622C103.834 615.145 128.578 587.392 161.583 557.153C227.587 496.681 326.558 426.331 442.852 360.448Z" stroke="#999999" stroke-width="0.852891"/>
<path opacity="0.827586" d="M451.533 352.204C573.236 296.517 688.732 257.315 777.073 238.947C821.247 229.762 858.609 225.792 886.552 227.563C900.524 228.449 912.119 230.769 921.027 234.575C929.932 238.38 936.125 243.658 939.353 250.45C942.58 257.242 942.719 265.289 939.966 274.428C937.211 283.571 931.57 293.778 923.28 304.85C906.702 326.993 879.587 352.525 844.022 379.826C772.897 434.423 668.053 496.041 546.35 551.728C424.647 607.415 309.152 646.616 220.81 664.984C176.636 674.169 139.275 678.139 111.331 676.368C97.3591 675.482 85.7643 673.162 76.8564 669.356C67.952 665.551 61.7587 660.274 58.531 653.482C55.3034 646.69 55.1641 638.642 57.9176 629.503C60.6721 620.36 66.3138 610.153 74.6033 599.081C91.182 576.938 118.297 551.406 153.862 524.105C224.986 469.508 329.83 407.891 451.533 352.204Z" stroke="#999999" stroke-width="0.852891"/>
<path opacity="0.862069" d="M460.554 344.669C586.735 299.589 705.268 270.402 794.9 259.65C839.719 254.275 877.288 253.511 904.966 257.664C918.805 259.74 930.148 263.043 938.683 267.596C947.215 272.147 952.915 277.934 955.526 284.976C958.138 292.018 957.56 300.047 954.005 308.917C950.448 317.79 943.921 327.477 934.68 337.799C916.197 358.443 886.918 381.563 849.064 405.724C773.362 454.041 663.447 506.47 537.266 551.55C411.085 596.631 292.552 625.818 202.921 636.569C158.102 641.945 120.533 642.707 92.8551 638.555C79.0159 636.478 67.6725 633.176 59.1376 628.623C50.6057 624.071 44.9053 618.285 42.2941 611.243C39.6831 604.201 40.2605 596.171 43.8158 587.302C47.3724 578.429 53.8994 568.742 63.1409 558.419C81.6239 537.775 110.903 514.656 148.757 490.496C224.459 442.179 334.373 389.75 460.554 344.669Z" stroke="#999999" stroke-width="0.852891"/>
<path opacity="0.896552" d="M469.897 337.983C599.603 303.868 720.277 284.932 810.524 281.889C855.651 280.367 893.145 282.821 920.35 289.325C933.952 292.578 944.96 296.838 953.058 302.104C961.153 307.367 966.318 313.619 968.294 320.857C970.27 328.095 968.982 336.044 964.652 344.576C960.321 353.111 952.958 362.203 942.835 371.695C922.588 390.68 891.367 411.207 851.511 432.037C771.805 473.694 657.652 516.52 527.946 550.635C398.24 584.749 277.565 603.686 187.319 606.729C142.192 608.25 104.697 605.797 77.4933 599.292C63.8909 596.04 52.8837 591.779 44.7854 586.514C36.69 581.25 31.5254 574.997 29.5495 567.759C27.5739 560.522 28.862 552.573 33.1914 544.041C37.5225 535.506 44.8848 526.415 55.0081 516.922C75.2544 497.938 106.476 477.411 146.332 456.581C226.038 414.924 340.191 372.097 469.897 337.983Z" stroke="#999999" stroke-width="0.852891"/>
<path opacity="0.931035" d="M479.457 332.106C611.7 309.218 733.599 300.677 823.773 305.366C868.864 307.71 905.998 313.362 932.522 322.168C945.784 326.572 956.371 331.758 963.971 337.696C971.568 343.632 976.158 350.302 977.484 357.681C978.809 365.06 976.82 372.869 971.749 380.998C966.677 389.13 958.535 397.556 947.607 406.146C925.752 423.327 892.826 441.105 851.272 458.446C768.169 493.125 650.646 526.024 518.403 548.912C386.16 571.801 264.262 580.341 174.087 575.652C128.996 573.308 91.8611 567.656 65.3377 558.849C52.0758 554.445 41.4885 549.261 33.8886 543.322C26.2913 537.386 21.7022 530.715 20.3766 523.336C19.0512 515.957 21.0395 508.149 26.11 500.02C31.1824 491.889 39.3244 483.461 50.2522 474.871C72.1074 457.691 105.034 439.913 146.589 422.572C229.691 387.893 347.214 354.995 479.457 332.106Z" stroke="#999999" stroke-width="0.852891"/>
<path opacity="0.965517" d="M489.162 327.056C622.935 315.568 745.129 317.487 834.545 329.873C879.256 336.066 915.748 344.873 941.389 355.915C954.21 361.436 964.296 367.508 971.34 374.074C978.381 380.638 982.361 387.674 983.027 395.139C983.692 402.603 981.017 410.211 975.244 417.875C969.469 425.542 960.61 433.241 948.96 440.863C925.663 456.108 891.283 471.002 848.347 484.722C762.481 512.16 642.482 534.878 508.709 546.366C374.936 557.854 252.742 555.935 163.326 543.549C118.615 537.356 82.1233 528.549 56.4826 517.507C43.6619 511.986 33.5745 505.914 26.5307 499.348C19.4896 492.784 15.5102 485.747 14.845 478.283C14.1797 470.819 16.8537 463.211 22.6267 455.547C28.4019 447.88 37.2619 440.181 48.9111 432.559C72.2089 417.314 106.588 402.42 149.525 388.7C235.391 361.262 355.388 338.544 489.162 327.056Z" stroke="#999999" stroke-width="0.852891"/>
<path d="M498.942 322.839C633.227 322.839 754.786 335.205 842.762 355.193C886.753 365.187 922.324 377.083 946.887 390.277C959.168 396.874 968.677 403.785 975.111 410.928C981.543 418.069 984.883 425.42 984.883 432.912C984.883 440.405 981.543 447.756 975.111 454.897C968.677 462.04 959.168 468.952 946.887 475.549C922.324 488.743 886.753 500.638 842.762 510.632C754.786 530.62 633.227 542.987 498.942 542.987C364.658 542.987 243.098 530.62 155.122 510.632C111.131 500.638 75.5598 488.743 50.9971 475.549C38.7154 468.952 29.2065 462.04 22.7725 454.897C16.3408 447.756 13.001 440.405 13.001 432.912C13.0011 425.42 16.3408 418.069 22.7725 410.928C29.2065 403.785 38.7156 396.874 50.9971 390.277C75.5598 377.083 111.131 365.187 155.122 355.193C243.098 335.205 364.658 322.839 498.942 322.839Z" stroke="#999999" stroke-width="0.852891"/>
</svg>
