<svg width="422" height="18" viewBox="0 0 422 18" fill="none" xmlns="http://www.w3.org/2000/svg">
<path d="M118.455 14H117.255L119.955 10.16L117.375 6.5H118.515L120.78 9.74H122.085V6.5H123.06V9.74H124.365L126.63 6.5H127.77L125.205 10.16L127.89 14H126.69L124.38 10.655H123.06V14H122.085V10.655H120.78L118.455 14ZM131.027 14H129.737V6.5H130.727V12.83H130.817L134.822 6.5H136.112V14H135.137V7.67H135.032L131.027 14ZM138.5 14.12C138.335 14.12 138.14 14.105 137.915 14.075V13.16C138.035 13.175 138.14 13.175 138.23 13.175C139.19 13.175 139.445 12.695 139.55 10.505L139.76 6.5H145.025V14H144.02V7.445H140.66L140.48 10.91C140.36 13.25 139.835 14.12 138.5 14.12ZM151.151 14.195C148.871 14.195 147.251 12.575 147.251 10.25C147.251 7.925 148.871 6.305 151.151 6.305C153.431 6.305 155.051 7.925 155.051 10.25C155.051 12.575 153.431 14.195 151.151 14.195ZM151.151 13.25C152.876 13.25 154.016 12.065 154.016 10.25C154.016 8.435 152.876 7.25 151.151 7.25C149.426 7.25 148.286 8.435 148.286 10.25C148.286 12.065 149.426 13.25 151.151 13.25ZM160.444 5.48C158.944 5.48 158.134 4.655 158.134 3.26H158.959C158.989 4.22 159.454 4.685 160.444 4.685C161.419 4.685 161.884 4.22 161.914 3.26H162.739C162.739 4.655 161.944 5.48 160.444 5.48ZM158.554 14H157.264V6.5H158.254V12.83H158.344L162.349 6.5H163.639V14H162.664V7.67H162.559L158.554 14ZM171.415 14H170.425V6.5H171.415V9.74H173.05L175.465 6.5H176.62L173.875 10.16L176.74 14H175.525L173.05 10.655H171.415V14ZM181.97 14.195C179.69 14.195 178.07 12.575 178.07 10.25C178.07 7.925 179.69 6.305 181.97 6.305C184.25 6.305 185.87 7.925 185.87 10.25C185.87 12.575 184.25 14.195 181.97 14.195ZM181.97 13.25C183.695 13.25 184.835 12.065 184.835 10.25C184.835 8.435 183.695 7.25 181.97 7.25C180.245 7.25 179.105 8.435 179.105 10.25C179.105 12.065 180.245 13.25 181.97 13.25ZM189.073 14H188.083V6.5H189.508L192.208 11.825H192.298L195.013 6.5H196.408V14H195.418V7.73H195.328L192.718 12.845H191.758L189.163 7.73H189.073V14ZM198.793 14.12C198.628 14.12 198.433 14.105 198.208 14.075V13.16C198.328 13.175 198.433 13.175 198.523 13.175C199.483 13.175 199.738 12.695 199.843 10.505L200.053 6.5H205.318V14H204.313V7.445H200.953L200.773 10.91C200.653 13.25 200.128 14.12 198.793 14.12ZM211.355 6.305C213.755 6.305 215.375 8.225 215.06 10.505H208.58C208.685 12.2 209.78 13.28 211.445 13.28C212.66 13.28 213.59 12.68 213.95 11.78H214.91C214.58 13.175 213.2 14.195 211.445 14.195C209.15 14.195 207.545 12.545 207.545 10.25C207.545 7.94 209.15 6.305 211.355 6.305ZM211.355 7.22C209.885 7.22 208.85 8.12 208.625 9.605H214.13C213.95 8.18 212.9 7.22 211.355 7.22ZM218.182 14H217.192V6.5H218.182V9.74H219.817L222.232 6.5H223.387L220.642 10.16L223.507 14H222.292L219.817 10.655H218.182V14ZM228.692 14.195C226.427 14.195 224.837 12.545 224.837 10.25C224.837 7.97 226.457 6.305 228.707 6.305C230.612 6.305 232.097 7.49 232.337 9.275H231.362C231.077 7.925 229.982 7.25 228.707 7.25C226.982 7.25 225.872 8.45 225.872 10.25C225.872 12.05 226.982 13.25 228.692 13.25C230.057 13.25 231.122 12.47 231.362 11.21H232.337C232.157 12.965 230.627 14.195 228.692 14.195ZM242.049 6.575C244.134 6.575 245.649 8.135 245.649 10.37C245.649 12.635 244.074 14.195 241.824 14.195C239.394 14.195 238.059 12.545 238.059 9.53C238.059 7.265 238.434 5.735 239.349 4.865C239.994 4.265 240.879 3.98 242.079 3.92C243.729 3.86 244.224 3.665 244.239 3.305H245.169C245.169 4.505 244.464 4.76 242.334 4.85C241.284 4.895 240.519 5.06 239.979 5.525C239.454 6.005 239.139 6.785 239.004 8.075H239.109C239.769 6.995 240.954 6.575 242.049 6.575ZM241.839 13.25C243.519 13.25 244.614 12.125 244.614 10.385C244.614 8.645 243.519 7.52 241.839 7.52C240.189 7.52 239.094 8.645 239.094 10.385C239.094 12.125 240.189 13.25 241.839 13.25ZM249.168 14H247.878V6.5H248.868V12.83H248.958L252.963 6.5H254.253V14H253.278V7.67H253.173L249.168 14ZM259.746 14.195C257.706 14.195 256.386 13.16 256.386 11.555H257.361C257.406 12.62 258.306 13.25 259.746 13.25C261.126 13.25 261.921 12.74 261.921 11.84C261.921 11.06 261.336 10.625 260.286 10.625H258.366V9.725H260.091C261.111 9.725 261.741 9.26 261.741 8.525C261.741 7.73 261.006 7.25 259.806 7.25C258.516 7.25 257.691 7.805 257.601 8.765H256.626C256.731 7.28 257.991 6.305 259.821 6.305C261.576 6.305 262.776 7.175 262.776 8.45C262.776 9.14 262.431 9.65 261.711 10.025V10.115C262.521 10.43 262.956 11.06 262.956 11.87C262.956 13.265 261.681 14.195 259.746 14.195ZM270.464 9.71V6.5H271.454V14H270.464V10.67H266.189V14H265.199V6.5H266.189V9.71H270.464ZM277.489 6.305C279.889 6.305 281.509 8.225 281.194 10.505H274.714C274.819 12.2 275.914 13.28 277.579 13.28C278.794 13.28 279.724 12.68 280.084 11.78H281.044C280.714 13.175 279.334 14.195 277.579 14.195C275.284 14.195 273.679 12.545 273.679 10.25C273.679 7.94 275.284 6.305 277.489 6.305ZM277.489 7.22C276.019 7.22 274.984 8.12 274.759 9.605H280.264C280.084 8.18 279.034 7.22 277.489 7.22ZM286.671 14.195C284.406 14.195 282.816 12.545 282.816 10.25C282.816 7.97 284.436 6.305 286.686 6.305C288.591 6.305 290.076 7.49 290.316 9.275H289.341C289.056 7.925 287.961 7.25 286.686 7.25C284.961 7.25 283.851 8.45 283.851 10.25C283.851 12.05 284.961 13.25 286.671 13.25C288.036 13.25 289.101 12.47 289.341 11.21H290.316C290.136 12.965 288.606 14.195 286.671 14.195ZM300.269 8.72H303.329V9.59H300.269V12.65H299.399V9.59H296.339V8.72H299.399V5.66H300.269V8.72Z" fill="url(#paint0_linear_4007_14)"/>
<path d="M111 10H0" stroke="url(#paint1_linear_4007_14)" stroke-width="0.5"/>
<path d="M311 10H422" stroke="url(#paint2_linear_4007_14)" stroke-width="0.5"/>
<defs>
<linearGradient id="paint0_linear_4007_14" x1="83.7493" y1="11.5" x2="338.109" y2="12.7597" gradientUnits="userSpaceOnUse">
<stop stop-color="#D5C298"/>
<stop offset="0.5" stop-color="white"/>
<stop offset="1" stop-color="#D5C298"/>
</linearGradient>
<linearGradient id="paint1_linear_4007_14" x1="0" y1="10.5" x2="111" y2="10.5" gradientUnits="userSpaceOnUse">
<stop stop-color="#BCA379" stop-opacity="0"/>
<stop offset="1" stop-color="white"/>
</linearGradient>
<linearGradient id="paint2_linear_4007_14" x1="422" y1="10.5" x2="311" y2="10.5" gradientUnits="userSpaceOnUse">
<stop stop-color="#BCA379" stop-opacity="0"/>
<stop offset="1" stop-color="white"/>
</linearGradient>
</defs>
</svg>
